<?xml version="1.0" encoding="UTF-8" standalone="no"?>
<!-- Created with Inkscape (http://www.inkscape.org/) -->

<svg
   width="32"
   height="32"
   viewBox="0 0 8.4666666 8.4666666"
   version="1.1"
   id="svg5"
   inkscape:version="1.3.2 (091e20ef0f, 2023-11-25)"
   sodipodi:docname="dairyProducts.svg"
   xmlns:inkscape="http://www.inkscape.org/namespaces/inkscape"
   xmlns:sodipodi="http://sodipodi.sourceforge.net/DTD/sodipodi-0.dtd"
   xmlns="http://www.w3.org/2000/svg"
   xmlns:svg="http://www.w3.org/2000/svg">
  <sodipodi:namedview
     id="namedview7"
     pagecolor="#ffffff"
     bordercolor="#000000"
     borderopacity="0.25"
     inkscape:showpageshadow="2"
     inkscape:pageopacity="0.0"
     inkscape:pagecheckerboard="0"
     inkscape:deskcolor="#d1d1d1"
     inkscape:document-units="px"
     showgrid="false"
     inkscape:zoom="16.343393"
     inkscape:cx="15.449668"
     inkscape:cy="15.510855"
     inkscape:window-width="1600"
     inkscape:window-height="831"
     inkscape:window-x="0"
     inkscape:window-y="0"
     inkscape:window-maximized="1"
     inkscape:current-layer="layer1" />
  <defs
     id="defs2" />
  <g
     inkscape:label="Layer 1"
     inkscape:groupmode="layer"
     id="layer1">
    <g
       id="group-R5"
       transform="matrix(9.5716139e-4,0,0,9.5716139e-4,3.8785455,4.3867354)"
       style="stroke:none;fill:#d6d3d1;fill-opacity:1">
      <path
         id="path2"
         d="m 27967,24848 c -1084,0 -1933,639 -1933,1454 0,816 849,1454 1933,1454 1083,0 1933,-639 1933,-1454 0,-815 -849,-1454 -1933,-1454 z m -9076,7121 -7865,-6630 c -41,-35 -41,-90 -22,-130 405,-872 220,-1916 -459,-2596 -716,-718 -1800,-883 -2697,-410 -31,17 -72,10 -103,-15 l -3955,-3226 31813,5233 c -1101,1255 -4355,4510 -9899,6404 -42,14 -88,0 -116,-35 -503,-641 -1313,-953 -2116,-815 -920,159 -1644,885 -1800,1804 -8,46 -41,82 -84,89 -884,148 -1790,259 -2697,327 z m 1602,-5373 c 0,-1092 -1165,-1948 -2650,-1948 -1486,0 -2650,856 -2650,1948 0,1092 1164,1948 2650,1948 1486,0 2650,-856 2650,-1948"
         style="fill:#d6d3d1;fill-opacity:1;fill-rule:evenodd;stroke:none"
         transform="matrix(0.13333333,0,0,-0.13333333,0,5164)" />
      <path
         id="path3"
         d="m 27967,26960 c -671,0 -1137,-347 -1137,-658 0,-311 466,-658 1137,-658 670,0 1137,347 1137,658 0,311 -467,658 -1137,658 v 0"
         style="fill:#d6d3d1;fill-opacity:1;fill-rule:evenodd;stroke:none"
         transform="matrix(0.13333333,0,0,-0.13333333,0,5164)" />
      <path
         id="path4"
         d="m 17843,27748 c -1005,0 -1854,-527 -1854,-1152 0,-624 849,-1152 1854,-1152 1005,0 1854,527 1854,1152 1,624 -849,1152 -1854,1152"
         style="fill:#d6d3d1;fill-opacity:1;fill-rule:evenodd;stroke:none"
         transform="matrix(0.13333333,0,0,-0.13333333,0,5164)" />
      <path
         id="path5"
         d="m 30217,20145 c -513,0 -931,-417 -931,-930 0,-513 418,-930 930,-930 513,0 929,417 929,930 2,513 -415,930 -928,930"
         style="fill:#d6d3d1;fill-opacity:1;fill-rule:evenodd;stroke:none"
         transform="matrix(0.13333333,0,0,-0.13333333,0,5164)" />
      <path
         id="path6"
         d="m 25803,14142 c -455,0 -824,-370 -824,-824 0,-454 370,-824 824,-824 454,0 823,370 823,824 0,454 -370,824 -823,824 v 0"
         style="fill:#d6d3d1;fill-opacity:1;fill-rule:evenodd;stroke:none"
         transform="matrix(0.13333333,0,0,-0.13333333,0,5164)" />
      <path
         id="path7"
         d="m 18808,17271 c -832,0 -1509,-678 -1509,-1510 0,-832 677,-1510 1509,-1510 833,0 1510,677 1510,1510 0,833 -678,1510 -1510,1510"
         style="fill:#d6d3d1;fill-opacity:1;fill-rule:evenodd;stroke:none"
         transform="matrix(0.13333333,0,0,-0.13333333,0,5164)" />
      <path
         id="path8"
         d="m 11668,11671 c 0,-342 278,-621 621,-621 343,0 621,279 621,621 0,343 -278,621 -621,621 -343,0 -621,-278 -621,-621 v 0"
         style="fill:#d6d3d1;fill-opacity:1;fill-rule:evenodd;stroke:none"
         transform="matrix(0.13333333,0,0,-0.13333333,0,5164)" />
      <path
         id="path9"
         d="m 8408,16586 c -455,0 -824,-370 -824,-824 0,-455 370,-824 824,-824 454,0 823,370 823,824 0,454 -370,824 -823,824"
         style="fill:#d6d3d1;fill-opacity:1;fill-rule:evenodd;stroke:none"
         transform="matrix(0.13333333,0,0,-0.13333333,0,5164)" />
      <path
         id="path10"
         d="m 28491,19215 c 0,952 774,1726 1726,1726 952,0 1726,-775 1726,-1726 0,-952 -774,-1726 -1725,-1726 -953,0 -1727,775 -1727,1726 z m -4309,-5897 c 0,894 727,1620 1620,1620 893,0 1620,-726 1620,-1620 0,-894 -727,-1620 -1619,-1620 -895,0 -1621,728 -1621,1620 z M 8407,17382 c 894,0 1620,-726 1620,-1620 0,-894 -726,-1620 -1619,-1620 -894,0 -1621,726 -1621,1620 0,894 727,1620 1620,1620 z m 2465,-5711 c 0,782 636,1417 1417,1417 782,0 1418,-636 1418,-1417 0,-782 -636,-1417 -1417,-1417 -782,1 -1418,637 -1418,1417 z m 5630,4091 c 0,1271 1035,2306 2306,2306 1272,0 2306,-1035 2306,-2306 0,-1271 -1035,-2306 -2306,-2306 -1271,0 -2306,1034 -2306,2306 z M 35951,23445 2780,17989 v -3429 c 0,-46 29,-87 69,-96 880,-214 1494,-998 1494,-1905 0,-906 -615,-1689 -1493,-1905 -40,-9 -69,-50 -69,-96 V 7030 c 0,-109 60,-176 95,-206 36,-30 111,-77 217,-59 l 14220,2467 c 44,8 80,41 83,79 82,886 752,1611 1630,1764 h 1 c 878,153 1755,-305 2131,-1113 16,-34 61,-54 104,-46 l 13833,2400 c 496,86 856,513 856,1017 v 2682 c 0,46 -29,87 -69,96 -879,214 -1495,998 -1495,1905 0,907 615,1690 1495,1905 39,9 69,50 69,96 v 3428 0"
         style="fill:#d6d3d1;fill-opacity:1;fill-rule:evenodd;stroke:none"
         transform="matrix(0.13333333,0,0,-0.13333333,0,5164)" />
    </g>
    <g
       id="group-R5-5"
       transform="matrix(0.00130411,0,0,0.00130411,2.9827522,-1.2658175)"
       style="fill:#d6d3d1;fill-opacity:1;stroke:none">
      <path
         id="path3-3"
         d="m 29152,17457 c -273,-589 -726,-1184 -1346,-1766 -111,-104 -287,-99 -391,13 -104,111 -99,287 13,391 569,533 980,1070 1223,1594 164,353 164,761 0,1114 -1247,2665 -919,6676 -840,7452 45,533 -52,1001 -296,1424 -76,132 -31,302 102,378 132,76 302,31 378,-102 v 0 c 300,-524 420,-1097 365,-1750 -76,-756 -394,-4632 788,-7168 234,-500 235,-1079 4,-1580 z m -9787,-3149 c -2793,0 -5057,2264 -5057,5057 0,2793 2264,5057 5057,5057 2793,0 5057,-2264 5057,-5057 v 0 c -3,-2791 -2266,-5054 -5057,-5057 z m -3962,-3629 c -184,-30 -370,-45 -557,-45 -1251,0 -2148,604 -2741,1847 -110,231 -172,483 -183,738 -52,1318 -390,3850 -2076,5996 -340,433 -492,943 -427,1435 203,1523 983,2324 2607,2665 l 19,4 h 8 c 150,30 295,-69 325,-219 30,-150 -69,-295 -219,-325 v 0 c -1404,-293 -2018,-909 -2190,-2200 -45,-342 66,-704 314,-1020 1781,-2269 2138,-4930 2193,-6316 7,-181 51,-359 129,-522 506,-1060 1198,-1533 2242,-1533 155,-1 310,12 463,36 148,39 299,-50 337,-198 39,-148 -50,-299 -198,-337 -15,-2 -30,-5 -46,-6 z m 15751,9295 c -980,2102 -609,5865 -590,6025 97,1107 -122,2138 -650,3059 -806,1390 -2350,2183 -3950,2029 -1604,-151 -3955,-48 -4890,3 -292,17 -582,61 -865,130 -1374,332 -2634,306 -3744,-85 -1243,-438 -2205,-1487 -2576,-2807 -698,-2489 -2154,-2817 -2299,-2844 -3196,-669 -4137,-2839 -4363,-4542 -145,-1088 166,-2187 880,-3093 1299,-1655 1563,-3665 1604,-4716 21,-557 157,-1103 398,-1604 800,-1679 2035,-2688 3669,-3007 731,-143 1484,-137 2213,17 483,157 986,234 1494,231 1439,0 2785,-575 3573,-993 629,-343 1338,-513 2055,-494 2935,110 4362,3091 4953,4858 251,740 682,1405 1253,1936 830,778 1449,1604 1843,2452 504,1093 502,2353 -8,3445"
         style="fill:#d6d3d1;fill-opacity:1;fill-rule:nonzero;stroke:none"
         transform="matrix(0.13333333,0,0,-0.13333333,0,5164)" />
      <path
         id="path4-5"
         d="m 19364,23869 c 2487.5,0 4504,-2016.5 4504,-4504 0,-2487.5 -2016.5,-4504 -4504,-4504 -2487.5,0 -4504,2016.5 -4504,4504 0,2487.5 2016.5,4504 4504,4504"
         style="fill:#d6d3d1;fill-opacity:1;fill-rule:nonzero;stroke:none"
         transform="matrix(0.13333333,0,0,-0.13333333,0,5164)" />
    </g>
    <g
       id="group-R5-0"
       transform="matrix(0.00167822,0,0,0.00192915,-2.4810804,-0.74772548)"
       style="fill:#d6d3d1;fill-opacity:1;stroke:none">
      <path
         id="path2-9"
         d="m 13848,33232 h 11593 c 715,0 1295,582 1295,1295 0,715 -581,1296 -1295,1296 H 13289 c -715,0 -1296,-582 -1296,-1296 0,-714 582,-1295 1296,-1295 h 543 c 5,0 10,0 16,0 v 0"
         style="fill:#d6d3d1;fill-opacity:1;fill-rule:evenodd;stroke:none"
         transform="matrix(0.13333333,0,0,-0.13333333,0,5164)" />
      <path
         id="path3-36"
         d="m 14047,32441 c -1882,-2730 -2958,-4959 -2958,-6133 v -2 h 16553 v 2 c 0,1174 -1076,3402 -2958,6133 H 14047 v 0"
         style="fill:#d6d3d1;fill-opacity:1;fill-rule:evenodd;stroke:none"
         transform="matrix(0.13333333,0,0,-0.13333333,0,5164)" />
      <path
         id="path4-0"
         d="M 11088,25516 V 5005 c 0,-1157 941,-2098 2098,-2098 h 12358 c 1157,0 2098,941 2098,2098 V 25516 H 11088 v 0"
         style="fill:#d6d3d1;fill-opacity:1;fill-rule:evenodd;stroke:none"
         transform="matrix(0.13333333,0,0,-0.13333333,0,5164)" />
    </g>
  </g>
</svg>
