<?xml version="1.0" encoding="UTF-8" standalone="no"?>
<!-- Created with Inkscape (http://www.inkscape.org/) -->

<svg
   width="32"
   height="32"
   viewBox="0 0 8.4666666 8.4666666"
   version="1.1"
   id="svg5"
   inkscape:version="1.3.2 (091e20ef0f, 2023-11-25)"
   sodipodi:docname="meat.svg"
   xmlns:inkscape="http://www.inkscape.org/namespaces/inkscape"
   xmlns:sodipodi="http://sodipodi.sourceforge.net/DTD/sodipodi-0.dtd"
   xmlns="http://www.w3.org/2000/svg"
   xmlns:svg="http://www.w3.org/2000/svg">
  <sodipodi:namedview
     id="namedview7"
     pagecolor="#ffffff"
     bordercolor="#000000"
     borderopacity="0.25"
     inkscape:showpageshadow="2"
     inkscape:pageopacity="0.0"
     inkscape:pagecheckerboard="0"
     inkscape:deskcolor="#d1d1d1"
     inkscape:document-units="px"
     showgrid="false"
     inkscape:zoom="7.2407734"
     inkscape:cx="35.562499"
     inkscape:cy="-1.7263349"
     inkscape:window-width="1600"
     inkscape:window-height="831"
     inkscape:window-x="0"
     inkscape:window-y="0"
     inkscape:window-maximized="1"
     inkscape:current-layer="layer1" />
  <defs
     id="defs2" />
  <g
     inkscape:label="Layer 1"
     inkscape:groupmode="layer"
     id="layer1">
    <g
       id="g1"
       transform="matrix(0.01823209,0,0,0.01823209,9.4838028,2.8588136)"
       style="fill:#d6d3d1;fill-opacity:1;stroke:#d6d3d1;stroke-opacity:1">
      <path
         id="path9"
         d="m -129.61157,95.118019 c 13.73364,15.582211 26.19726,32.314461 31.682976,53.357651 1.957917,7.51064 -0.352795,13.91356 -6.572246,18.05516 -9.99422,6.66398 -20.00605,13.61369 -30.83632,18.66548 -57.13235,26.65587 -117.69725,42.69317 -179.17231,55.08623 -32.21212,6.49464 -64.90758,11.76514 -97.63125,14.08289 -17.2861,1.22415 -35.87043,-2.8081 -52.53212,-8.42785 -34.46992,-11.62756 -54.57825,-41.11625 -52.83906,-77.49116 2.13431,-44.64757 15.60689,-86.003688 44.44648,-121.0169 32.49083,-39.4476018 76.03418,-54.8357682 125.76526,-54.0279159 18.48202,0.2998787 36.95349,3.3866666 55.34732,5.83141655 8.001,1.06187873 15.79033,3.71123095 25.56933,6.09954535 -3.45371,2.4659166 -5.25288,4.0287045 -7.29191,5.164667 -36.4208,20.319999 -51.4209,55.714185 -46.9759,92.438347 4.45558,36.83 31.35841,65.81423 67.8815,75.10286 36.04683,9.16871 73.3425,-4.75896 96.80926,-37.73663 9.89897,-13.91004 17.34963,-29.56279 26.34899,-45.183791"
         style="fill:#d6d3d1;fill-opacity:1;fill-rule:nonzero;stroke:#d6d3d1;stroke-width:0.0352777;stroke-opacity:1" />
      <path
         id="path10"
         d="m -129.61157,95.118019 c 13.73364,15.582211 26.19726,32.314461 31.682976,53.357651 1.957917,7.51064 -0.352795,13.91356 -6.572246,18.05516 -9.99422,6.66398 -20.00605,13.61369 -30.83632,18.66548 -57.13235,26.65587 -117.69725,42.69317 -179.17231,55.08623 -32.21212,6.49464 -64.90758,11.76514 -97.63125,14.08289 -17.2861,1.22415 -35.87043,-2.8081 -52.53212,-8.42785 -34.46992,-11.62756 -54.57825,-41.11625 -52.83906,-77.49116 2.13431,-44.64757 15.60689,-86.003688 44.44648,-121.0169 32.49083,-39.4476018 76.03418,-54.8357682 125.76526,-54.0279159 18.48202,0.2998787 36.95349,3.3866666 55.34732,5.83141655 8.001,1.06187873 15.79033,3.71123095 25.56933,6.09954535 -3.45371,2.4659166 -5.25288,4.0287045 -7.29191,5.164667 -36.4208,20.319999 -51.4209,55.714185 -46.9759,92.438347 4.45558,36.83 31.35841,65.81423 67.8815,75.10286 36.04683,9.16871 73.3425,-4.75896 96.80926,-37.73663 9.89897,-13.91004 17.34963,-29.56279 26.34899,-45.183791 z"
         style="fill:#d6d3d1;stroke:#d6d3d1;stroke-width:5.11188;stroke-linecap:butt;stroke-linejoin:miter;stroke-miterlimit:10;stroke-dasharray:none;stroke-opacity:1;fill-opacity:1" />
      <path
         id="path11"
         d="m -77.026511,-38.119079 c 2.208371,0.331611 4.787186,0.458611 7.217833,1.125361 7.507103,2.06375 12.075557,7.030868 11.401769,14.897803 -0.694981,8.117417 -5.852583,14.1816668 -14.072314,13.3949812 -26.617083,-2.5505832 -38.812597,16.8345377 -51.717207,33.8984158 -12.37546,16.361834 -15.16946,36.628917 -20.21064,56.317435 -9.37332,36.632433 -34.87915,79.202143 -81.55869,83.047413 -38.1,3.13973 -73.42716,-26.10556 -79.20215,-62.00068 -4.79776,-29.813252 10.49867,-63.126065 39.02782,-78.418982 22.04508,-11.818064 45.3037,-18.7854164 70.24158,-18.1327687 31.98987,0.8396023 58.68458,-10.6609619 80.9907,-32.7518973 4.064,-4.021667 6.83332,-10.41047 7.93399,-16.13958 2.27893,-11.863917 6.70276,-17.653 15.709181,-17.28964 9.295712,0.377473 13.476128,6.625167 13.278564,19.744973 -0.01058,0.582083 0.472731,1.171223 0.959564,2.307166"
         style="fill:#d6d3d1;fill-opacity:1;fill-rule:nonzero;stroke:#d6d3d1;stroke-width:0.0352777;stroke-opacity:1" />
      <path
         id="path12"
         d="m -77.026511,-38.119079 c 2.208371,0.331611 4.787186,0.458611 7.217833,1.125361 7.507103,2.06375 12.075557,7.030868 11.401769,14.897803 -0.694981,8.117417 -5.852583,14.1816668 -14.072314,13.3949812 -26.617083,-2.5505832 -38.812597,16.8345377 -51.717207,33.8984158 -12.37546,16.361834 -15.16946,36.628917 -20.21064,56.317435 -9.37332,36.632433 -34.87915,79.202143 -81.55869,83.047413 -38.1,3.13973 -73.42716,-26.10556 -79.20215,-62.00068 -4.79776,-29.813252 10.49867,-63.126065 39.02782,-78.418982 22.04508,-11.818064 45.3037,-18.7854164 70.24158,-18.1327687 31.98987,0.8396023 58.68458,-10.6609619 80.9907,-32.7518973 4.064,-4.021667 6.83332,-10.41047 7.93399,-16.13958 2.27893,-11.863917 6.70276,-17.653 15.709181,-17.28964 9.295712,0.377473 13.476128,6.625167 13.278564,19.744973 -0.01058,0.582083 0.472731,1.171223 0.959564,2.307166 z"
         style="fill:#d6d3d1;stroke:#d6d3d1;stroke-width:5.11188;stroke-linecap:butt;stroke-linejoin:miter;stroke-miterlimit:10;stroke-dasharray:none;stroke-opacity:1;fill-opacity:1" />
      <path
         id="path13"
         d="m -349.14872,-23.443517 c 17.8788,-9.800172 37.12633,-14.802562 57.11825,-13.973535 31.59831,1.308807 58.26831,-9.33097 80.8214,-30.578776 4.83658,-4.55436 8.57956,-11.58875 10.06123,-18.108083 2.78341,-12.283721 7.4577,-18.492609 16.54527,-17.631829 8.71714,0.82903 12.66825,6.960302 12.66118,19.572108 0,0.610304 0.37042,1.217084 0.66323,2.116667 0.68085,0.28575 1.5099,0.843137 2.3989,0.970137 11.74395,1.679223 17.39194,7.249583 16.51352,16.372416 -0.8396,8.745361 -7.70819,12.142611 -19.69207,12.671777 -6.68866,0.292807 -14.17108,2.695223 -19.65324,6.505223 -17.14852,11.92389 -30.00375,27.812997 -38.21994,47.9671826 -38.34694,-16.2736206 -77.74868,-25.1883326 -119.21773,-25.8832876"
         style="fill:#d6d3d1;fill-opacity:1;fill-rule:nonzero;stroke:#d6d3d1;stroke-width:0.0352777;stroke-opacity:1" />
      <path
         id="path14"
         d="m -349.14872,-23.443517 c 17.8788,-9.800172 37.12633,-14.802562 57.11825,-13.973535 31.59831,1.308807 58.26831,-9.33097 80.8214,-30.578776 4.83658,-4.55436 8.57956,-11.58875 10.06123,-18.108083 2.78341,-12.283721 7.4577,-18.492609 16.54527,-17.631829 8.71714,0.82903 12.66825,6.960302 12.66118,19.572108 0,0.610304 0.37042,1.217084 0.66323,2.116667 0.68085,0.28575 1.5099,0.843137 2.3989,0.970137 11.74395,1.679223 17.39194,7.249583 16.51352,16.372416 -0.8396,8.745361 -7.70819,12.142611 -19.69207,12.671777 -6.68866,0.292807 -14.17108,2.695223 -19.65324,6.505223 -17.14852,11.92389 -30.00375,27.812997 -38.21994,47.9671826 -38.34694,-16.2736206 -77.74868,-25.1883326 -119.21773,-25.8832876 z"
         style="fill:#d6d3d1;stroke:#d6d3d1;stroke-width:5.11188;stroke-linecap:butt;stroke-linejoin:miter;stroke-miterlimit:10;stroke-dasharray:none;stroke-opacity:1;fill-opacity:1" />
    </g>
  </g>
</svg>
