<?xml version="1.0" encoding="UTF-8" standalone="no"?>
<!-- Created with Inkscape (http://www.inkscape.org/) -->

<svg
   width="32"
   height="32"
   viewBox="0 0 8.4666666 8.4666666"
   version="1.1"
   id="svg5"
   inkscape:version="1.3.2 (091e20ef0f, 2023-11-25)"
   sodipodi:docname="fishEating.svg"
   xmlns:inkscape="http://www.inkscape.org/namespaces/inkscape"
   xmlns:sodipodi="http://sodipodi.sourceforge.net/DTD/sodipodi-0.dtd"
   xmlns="http://www.w3.org/2000/svg"
   xmlns:svg="http://www.w3.org/2000/svg">
  <sodipodi:namedview
     id="namedview7"
     pagecolor="#ffffff"
     bordercolor="#000000"
     borderopacity="0.25"
     inkscape:showpageshadow="2"
     inkscape:pageopacity="0.0"
     inkscape:pagecheckerboard="0"
     inkscape:deskcolor="#d1d1d1"
     inkscape:document-units="px"
     showgrid="false"
     inkscape:zoom="5.9556129"
     inkscape:cx="49.868923"
     inkscape:cy="17.882291"
     inkscape:window-width="1600"
     inkscape:window-height="831"
     inkscape:window-x="0"
     inkscape:window-y="0"
     inkscape:window-maximized="1"
     inkscape:current-layer="layer1" />
  <defs
     id="defs2" />
  <g
     inkscape:label="Layer 1"
     inkscape:groupmode="layer"
     id="layer1">
    <g
       id="g4"
       transform="matrix(0.00235855,-0.00109981,0.00109981,0.00235855,-3.4932967,-1.3051726)"
       style="fill:#d6d3d1;fill-opacity:1;stroke:none">
      <path
         id="path3"
         d="m 2721.7132,2483.7401 c -113.96,-22.8 -240.48,-36.04 -380.7866,-36.04 -7.76,0 -15.5334,0.067 -23.2934,0.1867 -3.04,0.04 -6,-1.0134 -8.3466,-2.9467 -245.4667,-203.1466 -543.8933,-191.52 -638.24,-181.7066 -15.0133,1.56 -23.7067,17.84 -16.64,31.1733 47.5067,89.6533 117.72,161.7333 167.96,206.24 7.6666,6.7866 4.6266,19.2933 -5.24,21.9733 -338.4267,91.8933 -644.32,251.4267 -857.09333,381.08 -5.06667,3.0933 -11.53333,2.24 -15.70666,-1.9867 -219.61333,-222.44 -536.92666,-325.56 -631.85199,-352.64 -13.95067,-3.9733 -27.84,6.7467 -27.36267,21.24 11.89867,361.72 247.53067,491.5334 336.89466,527.8667 10.73334,4.36 10.73334,19.48 0,23.84 -89.36399,36.3467 -324.99599,166.1467 -336.89466,527.8667 -0.47733,14.5066 13.412,25.2133 27.36267,21.24 94.92667,-27.08 412.23866,-130.2 631.85199,-352.64 4.17333,-4.2267 10.63999,-5.08 15.70666,-1.9867 212.77333,129.6533 518.66663,289.1867 857.09333,381.08 9.8666,2.68 12.9066,15.1867 5.24,21.9733 -50.24,44.5067 -120.4533,116.5867 -167.96,206.24 -7.0667,13.3333 1.6267,29.6133 16.64,31.1733 94.3467,9.8134 392.7733,21.44 638.24,-181.7066 2.3466,-1.9333 5.3066,-2.9867 8.3466,-2.9467 7.76,0.12 15.5334,0.1867 23.2934,0.1867 140.3066,0 266.8266,-13.2267 380.7866,-36.04 -127.6533,-182.4 -196.4266,-399.08 -196.4266,-626.36 0,-227.28 68.7733,-443.96 196.4266,-626.36"
         style="fill:#d6d3d1;fill-opacity:1;fill-rule:nonzero;stroke:none;stroke-width:0.133333" />
      <path
         id="path4"
         d="m 2974.4066,3005.7801 c -37.0934,0 -67.1734,-30.08 -67.1734,-67.1867 0,-37.0933 30.08,-67.1733 67.1734,-67.1733 37.1066,0 67.1866,30.08 67.1866,67.1733 0,37.1067 -30.08,67.1867 -67.1866,67.1867 z m 641.8666,94.9733 c -70.4133,-144.56 -295.76,-456.3333 -780.7066,-590.04 -127.32,166.3734 -203.0934,374.1867 -203.0934,599.3867 0,225.2 75.7734,433.0133 203.0934,599.3867 484.9466,-133.7067 710.2933,-445.48 780.7066,-590.04 2.88,-5.9067 2.88,-12.7734 0,-18.6934"
         style="fill:#d6d3d1;fill-opacity:1;fill-rule:nonzero;stroke:none;stroke-width:0.133333" />
    </g>
  </g>
</svg>
