<?xml version="1.0" encoding="UTF-8" standalone="no"?>
<!-- Created with Inkscape (http://www.inkscape.org/) -->

<svg
   width="32"
   height="32"
   viewBox="0 0 8.4666666 8.4666666"
   version="1.1"
   id="svg5"
   inkscape:version="1.3.2 (091e20ef0f, 2023-11-25)"
   sodipodi:docname="totalFast.svg"
   xmlns:inkscape="http://www.inkscape.org/namespaces/inkscape"
   xmlns:sodipodi="http://sodipodi.sourceforge.net/DTD/sodipodi-0.dtd"
   xmlns="http://www.w3.org/2000/svg"
   xmlns:svg="http://www.w3.org/2000/svg">
  <sodipodi:namedview
     id="namedview7"
     pagecolor="#ffffff"
     bordercolor="#000000"
     borderopacity="0.25"
     inkscape:showpageshadow="2"
     inkscape:pageopacity="0.0"
     inkscape:pagecheckerboard="0"
     inkscape:deskcolor="#d1d1d1"
     inkscape:document-units="px"
     showgrid="false"
     inkscape:zoom="11.313709"
     inkscape:cx="32.747881"
     inkscape:cy="25.146484"
     inkscape:window-width="1600"
     inkscape:window-height="831"
     inkscape:window-x="0"
     inkscape:window-y="0"
     inkscape:window-maximized="1"
     inkscape:current-layer="layer1" />
  <defs
     id="defs2" />
  <g
     inkscape:label="Layer 1"
     inkscape:groupmode="layer"
     id="layer1">
    <path
       d="m 4.2333335,8.4666662 q -0.878418,0 -1.651,-0.333375 Q 1.8097505,7.7999162 1.2382495,7.2284162 0.66675,6.6569162 0.333375,5.8843333 9.9999998e-8,5.1117499 9.9999998e-8,4.2333334 9.9999998e-8,3.3549167 0.333375,2.5823335 0.66675,1.8097503 1.2382495,1.2382502 1.8097505,0.6667503 2.5823335,0.3333753 3.3549155,4e-7 4.2333335,4e-7 q 0.878417,0 1.650999,0.3333749 0.772583,0.333375 1.344084,0.9048749 0.5715,0.5715001 0.904874,1.3440833 0.333376,0.7725832 0.333376,1.6509999 0,0.8784165 -0.333376,1.6509999 -0.333374,0.7725829 -0.904874,1.3440829 -0.571501,0.5715 -1.344084,0.904875 -0.772582,0.333375 -1.650999,0.333375 z m 0,-0.846666 q 0.5715,0 1.100666,-0.185209 0.529167,-0.185208 0.973666,-0.534458 l -4.741333,-4.741333 q -0.34925,0.4445 -0.534458,0.9736666 -0.185208,0.5291667 -0.185208,1.1006666 0,1.4181665 0.98425,2.4024168 0.98425,0.98425 2.402417,0.98425 z m 2.667,-1.3123336 q 0.349249,-0.4445001 0.534458,-0.9736667 0.185208,-0.5291666 0.185208,-1.1006665 0,-1.4181665 -0.98425,-2.4024166 -0.98425,-0.9842498 -2.402416,-0.9842498 -0.571501,0 -1.100667,0.1852082 -0.529167,0.1852084 -0.973666,0.5344583 z"
       id="path1"
       style="stroke-width:0.0105833;stroke:none;fill:#fdba74;fill-opacity:1" />
  </g>
</svg>
