<?xml version="1.0" encoding="UTF-8" standalone="no"?>
<!-- Created with Inkscape (http://www.inkscape.org/) -->

<svg
   width="32"
   height="32"
   viewBox="0 0 8.4666666 8.4666666"
   version="1.1"
   id="svg5"
   inkscape:version="1.3.2 (091e20ef0f, 2023-11-25)"
   sodipodi:docname="wineAndOliveOil.svg"
   xmlns:inkscape="http://www.inkscape.org/namespaces/inkscape"
   xmlns:sodipodi="http://sodipodi.sourceforge.net/DTD/sodipodi-0.dtd"
   xmlns="http://www.w3.org/2000/svg"
   xmlns:svg="http://www.w3.org/2000/svg">
  <sodipodi:namedview
     id="namedview7"
     pagecolor="#ffffff"
     bordercolor="#000000"
     borderopacity="0.25"
     inkscape:showpageshadow="2"
     inkscape:pageopacity="0.0"
     inkscape:pagecheckerboard="0"
     inkscape:deskcolor="#d1d1d1"
     inkscape:document-units="px"
     showgrid="false"
     inkscape:zoom="8.0000004"
     inkscape:cx="34.687498"
     inkscape:cy="18.437499"
     inkscape:window-width="1600"
     inkscape:window-height="831"
     inkscape:window-x="0"
     inkscape:window-y="0"
     inkscape:window-maximized="1"
     inkscape:current-layer="layer1" />
  <defs
     id="defs2" />
  <g
     inkscape:label="Layer 1"
     inkscape:groupmode="layer"
     id="layer1">
    <g
       id="g8"
       transform="matrix(0.0163009,0,0,0.0163009,2.5015314,-0.57393545)"
       style="fill:#d6d3d1;fill-opacity:1;stroke:none">
      <path
         id="path1"
         d="M -153.45971,352.62622 H -5.3103848 v -77.84667 c 0,-14.56533 -4.2279999,-28.148 -11.5080002,-39.57867 -7.449199,-11.696 -18.100666,-21.19733 -30.703865,-27.25733 -3.2208,-1.26666 -5.499467,-4.404 -5.499467,-8.07333 V 82.916888 H -108.73052 V 201.20622 c 0.0489,3.17733 -1.65466,6.26267 -4.6636,7.832 l -0.0161,-0.032 c -12.07547,6.29867 -22.23906,15.84533 -29.31977,27.47066 -6.80261,11.16934 -10.72969,24.28534 -10.72969,38.30267 v 77.84667"
         style="fill:#d6d3d1;fill-opacity:1;fill-rule:evenodd;stroke:none;stroke-width:0.133333" />
      <path
         id="path2"
         d="M -5.3103848,333.34488 H -153.45971 v 71.736 H -5.3103848 v -71.736"
         style="fill:#d6d3d1;fill-opacity:1;fill-rule:evenodd;stroke:none;stroke-width:0.133333" />
      <path
         id="path3"
         d="M -5.3103848,413.75555 H -153.45971 v 61.1296 H -5.3103848 v -61.1296"
         style="fill:#d6d3d1;fill-opacity:1;fill-rule:evenodd;stroke:none;stroke-width:0.133333" />
      <path
         id="path4"
         d="m -153.45971,483.55808 v 66.89217 c 0,1.13125 0.36927,2.16927 0.96302,2.92709 0.59323,0.75885 1.40468,1.2302 2.2901,1.2302 H -8.5650514 c 0.8866666,0 1.6986666,-0.47135 2.2919999,-1.2302 0.5933333,-0.75782 0.9626667,-1.79584 0.9626667,-2.92709 V 483.55808 H -153.45971"
         style="fill:#d6d3d1;fill-opacity:1;fill-rule:evenodd;stroke:none;stroke-width:0.133333" />
      <path
         id="path5"
         d="m -108.73052,65.568889 h 55.708803 V 35.20889 h -55.708803 v 30.359999"
         style="fill:#d6d3d1;fill-opacity:1;fill-rule:evenodd;stroke:none;stroke-width:0.133333" />
    </g>
    <g
       id="group-R5"
       transform="matrix(-0.00342551,0,0,0.00342551,10.342028,0.45973359)"
       style="stroke:none;fill:#d6d3d1;fill-opacity:1">
      <path
         id="path3-7"
         d="M 14824.5,6573.8 C 14172.2,6392.4 13244,6018.7 12404,5259.2 c -32.2,-47.4 -65.2,-94.3 -98.9,-140.8 6.1,-12.1 12,-24.3 17.8,-36.6 1.1,-2.4 2.2,-4.7 3.3,-7 6.1,-13.2 11.8,-26.4 17.5,-39.9 1.2,-2.7 2.4,-5.5 3.5,-8.3 5.7,-13.8 11.2,-27.5 16.5,-41.4 0.5,-1.4 1,-2.8 1.5,-4.3 4.9,-13.2 9.7,-26.5 14.2,-40 0.9,-2.4 1.7,-4.9 2.5,-7.4 0.5,-1.4 1,-2.7 1.5,-4.1 5.9,-1.4 11.9,-2.9 17.7,-4.4 3.3,-0.7 6.6,-1.5 9.8,-2.3 16.8,-4.1 33.7,-8.5 50.4,-13.1 3.3,-0.8 6.5,-1.7 9.6,-2.6 17.5,-4.9 34.9,-9.9 52.1,-15.3 14.3,-4.3 28.5,-8.9 42.5,-13.6 l 1691.8,875.7 -1355.7,-1023.1 c 11,-6.2 22,-12.4 32.9,-18.8 4.5,-2.6 8.9,-5.1 13.4,-7.7 15.2,-9.1 30.3,-18.3 45.3,-27.7 2.1,-1.4 4.2,-2.7 6.2,-4.1 12.8,-8.1 25.5,-16.4 38.1,-24.9 5,-3.3 9.8,-6.7 14.8,-10.1 9.6,-6.6 19.2,-13.2 28.5,-19.9 5.6,-4 11,-8 16.6,-11.9 8.7,-6.5 17.5,-12.9 26,-19.4 5.6,-4.3 11.1,-8.5 16.7,-12.8 8.5,-6.6 16.8,-13.2 25.1,-19.9 5.5,-4.3 10.8,-8.6 16.2,-13 8.4,-7 16.9,-14.2 25.3,-21.3 4.8,-4.2 9.8,-8.3 14.5,-12.5 9.7,-8.4 19.2,-17 28.7,-25.6 3.3,-3.1 6.7,-6 10.1,-9.1 12.2,-11.4 24.3,-22.9 36.2,-34.6 968,451.7 1649.6,1109.1 2055.2,1588.4 253.4,299.4 432.8,567.6 542.6,747.5 -238.5,-21.7 -618.9,-74.1 -1069.5,-199.5 z m -1644,-3328.4 c -50.3,-163.5 -183,-267.7 -296.3,-232.8 -113.4,34.9 -164.5,195.7 -114.2,359.2 50.5,163.5 183.1,267.7 296.5,232.8 113.3,-34.9 164.4,-195.7 114,-359.2 z m -32.3,909 c -161.5,180.6 -374.9,324.2 -617.4,415 -14.5,5.4 -29.1,10.6 -43.9,15.8 -4.7,1.5 -9.4,3 -14,4.6 -6.8,2.2 -13.7,4.5 -20.5,6.7 0.1,-1.1 0.2,-2.2 0.3,-3.4 1.4,-15.1 2.6,-30.3 3.6,-45.6 2.6,-40.7 3.7,-81.5 3.4,-122.4 -1.3,-188.5 -33.8,-378.6 -97.2,-566.8 -41.6,-123.5 -96.6,-244.6 -163.4,-359.9 -7.5,-12.8 -14.9,-25.3 -22.6,-37.8 -1.6,-2.7 -3.4,-5.4 -5,-8.1 -6,-9.9 -12.2,-19.5 -18.3,-29.3 -2,-3.1 -4,-6.1 -5.9,-9.1 -6.8,-10.4 -13.5,-20.6 -20.3,-30.8 -1.2,-1.7 -2.4,-3.5 -3.6,-5.2 -16.5,-24.4 -33.4,-48.3 -50.9,-71.7 -1.7,-2.2 -3.4,-4.5 -5.1,-6.8 -7.2,-9.5 -14.3,-19 -21.6,-28.3 -1.8,-2.3 -3.6,-4.6 -5.4,-6.9 -8.7,-11.1 -17.5,-22 -26.4,-32.9 -0.1,-0.1 -0.1,-0.1 -0.2,-0.2 -9.6,-11.6 -19.3,-23.1 -29.1,-34.5 -0.5,-0.6 -0.9,-1.1 -1.4,-1.6 -8.9,-10.3 -17.7,-20.4 -26.8,-30.4 -1.7,-1.9 -3.4,-3.8 -5.2,-5.7 -8.3,-9.1 -16.7,-18.2 -25.2,-27.2 -1.4,-1.5 -2.8,-3 -4.1,-4.4 -20.1,-21.1 -40.6,-41.7 -61.5,-61.8 -0.9,-0.8 -1.8,-1.7 -2.7,-2.5 -9.3,-9 -18.8,-17.7 -28.3,-26.4 -1.7,-1.6 -3.4,-3.3 -5.1,-4.8 -9.6,-8.6 -19.2,-17.2 -28.8,-25.6 -1,-0.8 -1.9,-1.7 -2.8,-2.5 -21.7,-18.9 -43.8,-37.1 -66.2,-54.8 -1.4,-1.1 -2.9,-2.3 -4.4,-3.5 -9.6,-7.5 -19.3,-14.9 -29,-22.3 -1.9,-1.4 -3.8,-2.8 -5.7,-4.3 -10.6,-7.9 -21.2,-15.6 -32,-23.3 -0.4,-0.3 -0.9,-0.6 -1.4,-1 -11.9,-8.4 -23.8,-16.7 -35.8,-24.7 -0.1,0 -0.2,-0.1 -0.3,-0.2 -11.1,-7.5 -22.3,-14.8 -33.6,-22 -2.3,-1.6 -4.6,-3 -6.9,-4.5 -9.4,-5.9 -18.9,-11.8 -28.5,-17.5 -2.4,-1.5 -4.8,-3.1 -7.3,-4.5 -11.4,-6.8 -22.8,-13.5 -34.3,-20.1 -0.2,-0.1 -0.3,-0.2 -0.5,-0.3 -12,-6.8 -24.1,-13.4 -36.2,-19.9 -2.2,-1.2 -4.4,-2.4 -6.7,-3.5 -9.4,-5 -19,-10 -28.6,-14.8 -3.5,-1.8 -6.9,-3.5 -10.3,-5.2 -8.9,-4.4 -17.8,-8.6 -26.7,-12.9 -3.3,-1.6 -6.5,-3.1 -9.8,-4.7 -1.8,-0.8 -3.5,-1.6 -5.2,-2.4 126.6,-82.3 267.4,-148.1 416.5,-194 712.6,-219.5 1434.6,63.8 1609.5,631.4 99.9,324.7 4.7,681.6 -261.2,979.5 z m -1422.5,656.5 c -60,-103.5 -229.6,-117.3 -378.7,-30.8 -149.2,86.5 -221.6,240.4 -161.6,343.9 60,103.4 229.5,117.2 378.7,30.7 149.2,-86.4 221.6,-240.4 161.6,-343.8 z m 428.5,-283.1 c -2.9,45.1 -8.2,89.5 -15.6,133 -1.5,9 -3.1,18 -4.8,27 -4.8,24.9 -10.2,49.6 -16.5,73.7 v 0.1 c -12.8,49.4 -28.6,97.1 -47.3,143 -1.2,2.9 -2.2,5.8 -3.4,8.6 -2.4,5.7 -5,11.2 -7.4,16.9 -2.8,6.4 -5.5,12.7 -8.4,19 -16.3,35.4 -34.5,69.5 -54.2,102.1 -4.6,7.4 -9.1,14.5 -13.8,21.7 -0.6,1 -1.3,2 -2,3 -2.1,3.2 -4.2,6.5 -6.5,9.7 -1.1,1.8 -2.3,3.5 -3.5,5.3 -9.2,13.6 -18.7,26.7 -28.3,39.6 -0.4,0.5 -0.8,0.9 -1.2,1.4 -39.9,52.5 -84.6,99.6 -134,141.2 -0.8,0.7 -1.7,1.5 -2.6,2.2 -11.6,9.7 -23.5,19.1 -35.6,28.2 -1.3,1 -2.6,2 -3.9,3 -12.1,8.9 -24.3,17.5 -36.8,25.8 -1.2,0.8 -2.5,1.6 -3.8,2.4 -11.7,7.8 -23.7,15.3 -35.9,22.6 -1.5,0.8 -3,1.7 -4.4,2.5 -0.1,0.1 -0.1,0.1 -0.1,0.1 -0.1,0 -0.1,0 -0.1,0.1 -0.7,0.3 -1.3,0.7 -2,1.1 -0.2,0.1 -0.4,0.2 -0.6,0.3 -7,4 -14.1,8 -21.2,11.8 -1.4,0.7 -2.8,1.5 -4.2,2.3 -5.1,2.7 -10.1,5.3 -15.3,7.8 -3.5,1.8 -7,3.7 -10.6,5.4 -3.4,1.7 -6.9,3.4 -10.5,5 -5.1,2.4 -10.2,4.9 -15.5,7.2 -2.4,1.2 -4.8,2.2 -7.3,3.2 -6.2,2.8 -12.6,5.5 -18.9,8.1 -2,0.9 -4,1.6 -5.9,2.4 -6.7,2.7 -13.6,5.4 -20.5,8 -2.3,0.8 -4.5,1.7 -6.8,2.5 -6.6,2.4 -13.1,4.7 -19.8,7 -3.3,1 -6.6,2.1 -9.9,3.2 -5.7,1.8 -11.3,3.7 -17.1,5.4 -4.8,1.4 -9.7,2.7 -14.7,4.1 -4.1,1.3 -8.3,2.5 -12.5,3.6 -7.3,1.9 -14.6,3.7 -22,5.4 -1.8,0.5 -3.6,1 -5.5,1.4 -65,15.1 -132.7,22.9 -202.4,23.5 h -1 c -0.4,0 -0.9,0 -1.3,0.2 l -9.4,-0.2 c -155.4,-0.4 -313.6,-36.8 -469.9,-108.1 -252.4,-115.4 -481.3,-318.5 -644.5,-572.1 -13.9,-21.4 -27.4,-43.5 -41.6,-68 -130.22,-224.7 -205.6,-472.3 -218.11,-716.1 -8.98,-173.8 13.32,-338 66.2,-488.4 56.31,-160.5 143.81,-294.8 259.91,-399.4 44.7,-40.5 93.7,-76.2 145.8,-106.4 207.2,-120.1 452.3,-149.7 709.1,-85.9 0.3,0.2 0.5,0.3 0.8,0.4 85.7,21.3 169.5,52.5 250.4,92.3 259.7,127.7 488.8,345.3 649.7,623.1 56.8,98 103.4,200.5 138.6,304.9 0,0 0,0 0,0.1 48,142.4 75.2,290.2 80.5,434.3 1.6,46.6 1,92.8 -1.9,138.4 z M 9823.1,3071.5 c -9.18,12.2 -18.06,24.6 -26.84,37.1 -1.92,2.9 -3.74,5.7 -5.65,8.4 -6.66,9.8 -13.12,19.6 -19.58,29.5 -2.52,4 -5.04,8 -7.67,12.1 -5.75,9.3 -11.4,18.5 -16.95,28 -2.32,4 -4.74,7.9 -6.97,11.9 -6.86,11.8 -13.62,23.9 -20.07,36.1 -0.71,1.4 -1.52,2.7 -2.23,4 -7.16,13.6 -14.12,27.3 -20.79,41.3 -1.91,3.9 -3.83,7.9 -5.65,12 -4.84,10.1 -9.48,20.3 -14.03,30.5 -2.21,4.9 -4.33,9.7 -6.35,14.6 -4.34,10.2 -8.58,20.4 -12.71,30.7 -1.82,4.4 -3.64,9 -5.45,13.5 -5.66,14.6 -11.2,29.5 -16.45,44.4 -66.1,187.7 -93.95,391 -82.96,604.5 1.01,18.1 2.23,36.4 3.74,54.6 18.07,218.5 77.7,437.8 174.58,644.4 H 4106.02 v -684.2 c 0,-561.6 456.83,-1018.4 1018.41,-1018.4 h 4402.19 c 100.91,0 201.22,15 297.09,44.2 -0.2,0.3 -0.41,0.6 -0.61,0.8 z m -11.5,8646.3 -995.3,581.6 c -314.04,183.6 -509.1,523.5 -509.1,887.2 v 348.5 H 6343.85 v -348.5 c 0,-363.7 -195.07,-703.6 -509.1,-887.2 l -995.3,-581.6 c -452.39,-264.4 -733.43,-754.3 -733.43,-1278.2 V 9696 H 10545 v 743.6 c 0,523.9 -281,1013.8 -733.4,1278.2 z m -3467.75,3037.9 v -917.9 H 8307.2 v 917.9 z m 2289.49,893.7 H 6017.7 c -162.87,0 -295.47,-132.5 -295.47,-295.5 0,-162.8 132.6,-295.5 295.47,-295.5 h 2615.64 c 162.98,0 295.48,132.7 295.48,295.5 0,163 -132.5,295.5 -295.48,295.5 z m -499.81,1768.2 c -62.27,73 -146.83,113.2 -238.15,113.2 H 6755.67 c -91.32,0 -175.89,-40.2 -238.15,-113.2 -70.03,-82.2 -100.01,-192.5 -82.34,-302.7 l 186.28,-1162.8 h 1408.23 l 186.28,1162.8 c 17.66,110.2 -12.41,220.5 -82.44,302.7 z M 4106.02,9393.2 V 5031.8 h 5800.94 c 3.94,5.6 7.97,10.9 11.91,16.5 4.94,6.9 9.99,14 15.03,20.9 1.72,2.3 3.43,4.6 5.15,6.9 4.64,6.3 9.49,12.3 14.23,18.6 5.75,7.4 11.4,15 17.25,22.5 1.72,2.1 3.33,4.2 4.95,6.3 4.64,5.9 9.38,11.5 14.12,17.3 5.76,7.2 11.5,14.3 17.4,21.4 2.5,2.9 5,5.8 7.4,8.8 5.5,6.4 11,12.8 16.6,19 8,9.3 16,18.4 24.2,27.5 5.9,6.4 11.7,12.9 17.7,19.3 2.9,3.2 5.7,6.4 8.6,9.5 5.7,6 11.4,11.9 17.1,17.7 5.4,5.6 10.8,11.2 16.2,16.8 2.2,2.1 4.3,4.3 6.4,6.4 6.7,6.6 13.3,13 20,19.5 2.4,2.3 4.8,4.7 7.1,7.1 4.2,3.9 8.3,7.9 12.5,11.9 0.4,0.4 0.8,0.7 1.2,1.1 6.7,6.3 13.6,12.5 20.4,18.7 6.1,5.7 12.3,11.3 18.5,16.9 2.3,2 4.7,4.1 7,6.3 5.4,4.7 11.1,9.4 16.5,14.2 7.4,6.2 14.8,12.6 22.2,18.8 2.9,2.3 5.7,4.8 8.5,7.1 4,3.3 8.3,6.6 12.4,9.9 7.7,6.3 15.5,12.3 23.2,18.4 4.3,3.3 8.5,6.7 12.8,10.1 3.1,2.3 6.1,4.4 9.1,6.7 7.7,5.8 15.4,11.5 23.1,17.2 5.9,4.2 11.5,8.5 17.4,12.6 2.5,1.8 5,3.5 7.6,5.3 7,5 14.2,9.8 21.3,14.7 6.8,4.6 13.6,9.3 20.3,13.8 2.4,1.5 4.7,3.1 7,4.6 2.2,1.5 4.5,2.9 6.8,4.3 4.5,2.9 9,5.7 13.6,8.7 6.4,4.1 12.9,8.2 19.5,12.3 3.4,2.1 6.8,4.1 10.3,6.2 5.6,3.5 11.3,6.7 17,10.1 1.2,0.7 2.4,1.4 3.7,2.2 5.5,3.3 10.9,6.6 16.5,9.7 4.7,2.7 9.6,5.3 14.3,8 6.3,3.5 12.6,7 19,10.4 5,2.7 10,5.6 15,8.4 V 9393.2 Z M 13077,9778.9 c -107.3,-111.7 -250.7,-271.8 -408.2,-476.1 -302.5,-392.5 -719.9,-1033.6 -990.4,-1858.5 -24.1,-73.5 -47.1,-148.3 -68,-222 0,-0.2 -0.1,-0.3 -0.1,-0.4 -2.4,-7.9 -4.5,-15.7 -6.7,-23.7 -5.3,-18.9 -10.5,-37.9 -15.6,-56.9 -4.4,-16.2 -8.7,-32.5 -13,-48.9 -4.8,-18.9 -9.7,-38.3 -14.6,-57.8 -2.3,-9.3 -4.6,-18.8 -6.9,-28.1 -7.7,-31.6 -14.5,-60.6 -20.8,-88.9 -2.2,-9.2 -4.1,-17.8 -6,-26.6 0,-0.1 -0.2,-1 -0.3,-1.1 -1.1,-5.1 -2.2,-10.3 -3.3,-15.4 -0.1,-0.7 -0.3,-1.4 -0.4,-2 -1.9,-8 -3.6,-15.9 -5.2,-23.9 -0.1,-0.5 -0.2,-1 -0.3,-1.5 -1.6,-7.5 -3.2,-15 -4.8,-22.6 l -4.6,-22.2 c -3.9,-19.3 -7.7,-38.3 -11.5,-57.4 h 0.1 c -0.2,-0.8 -0.4,-2.2 -0.6,-3 -1.7,-8.5 -3.3,-17.1 -4.9,-25.7 l -0.7,-3.9 c -1.9,-9.9 -3.7,-19.8 -5.5,-29.7 -1.8,-10.1 -3.6,-19.9 -5.3,-29.9 -1.5,-8.6 -3.1,-16.9 -4.5,-25.4 l -2.4,-14.4 c -1.3,-7.7 -2.5,-14.8 -3.7,-22.1 l -0.8,-4.6 c -5.7,-34.8 -11.2,-70.8 -16.5,-106.8 l -3.2,-22.6 c -0.9,-6.5 -1.7,-12.8 -2.6,-19.3 l -3.3,-23.5 c -1.8,-13.8 -3.7,-28.3 -5.4,-42.7 l -0.3,-2.7 c -1.1,-8.3 -2.1,-16.6 -3,-24.8 -6.4,-53 -12,-105.8 -16.7,-157.1 -1.2,-12.6 -2.2,-24.6 -3.2,-36.7 l -0.2,-1.8 c -1.5,-18.3 -3.1,-36.5 -4.4,-54.9 -1,-13 -1.9,-26.3 -2.8,-39.6 v -0.5 c -0.1,-1.6 -0.2,-3.1 -0.3,-4.5 -0.9,-13.3 -1.8,-26.7 -2.6,-40.2 l -0.3,-6.5 c -1,-16.9 -1.9,-33.7 -2.8,-50.7 -0.5,-11.9 -1.2,-24.1 -1.6,-36.3 -2.2,-48.8 -3.6,-97.1 -4.4,-143.7 0.8,-0.1 1.5,-0.2 2.3,-0.3 4.6,-0.6 9.1,-1.3 13.7,-1.9 6.9,-1 13.9,-2.1 20.8,-3.3 4.9,-0.7 9.6,-1.5 14.4,-2.3 7.2,-1.2 14.4,-2.6 21.6,-3.9 4.1,-0.8 8.2,-1.5 12.3,-2.4 10.6,-2.2 21.1,-4.4 31.6,-6.8 4,-1 8,-2 12.1,-2.9 7.1,-1.7 14.2,-3.5 21.3,-5.4 4.5,-1.2 9,-2.4 13.6,-3.6 6.9,-1.9 13.8,-3.9 20.8,-6 4,-1.2 8.2,-2.4 12.2,-3.6 10.2,-3.1 20.5,-6.4 30.6,-9.9 3.7,-1.2 7.3,-2.5 11,-3.8 7,-2.4 14.1,-5 21.1,-7.6 3.4,-1.2 6.7,-2.4 9.9,-3.6 l 845.9,2232.1 -574.3,-2379 c 4.4,-3.3 9,-6.5 13.3,-9.7 4.5,-3.3 8.7,-6.7 13,-10 6.4,-4.9 12.7,-9.8 19,-14.9 4.8,-3.9 9.8,-7.8 14.7,-11.9 6.2,-5.1 12.3,-10.4 18.5,-15.7 7.9,-6.8 15.5,-13.6 23.3,-20.7 4.9,-4.4 9.7,-8.9 14.6,-13.4 5.3,-5.1 10.6,-10.2 15.9,-15.4 4.3,-4.2 8.6,-8.4 12.7,-12.8 8.3,-8.2 16.4,-16.6 24.2,-25.2 2.2,-2.3 4.5,-4.6 6.6,-7 20.5,19.3 41.2,38.6 61.9,57.7 737.8,1097.8 941.1,2234.1 977.9,3016.8 26.6,567.9 -28.2,1032.2 -73.9,1304"
         style="fill:#d6d3d1;fill-opacity:1;fill-rule:nonzero;stroke:none"
         transform="matrix(0.13333333,0,0,-0.13333333,0,2666.6667)" />
    </g>
    <g
       id="g9"
       transform="matrix(0.00934085,0,0,0.00934085,0.96427252,-0.2621616)"
       style="fill:#d6d3d1;fill-opacity:1;stroke:none">
      <path
         id="path6"
         d="m 2145.67,268.672 h 958.28 c 53.88,0 97.58,-43.703 97.58,-97.578 0,-53.879 -43.7,-97.5784 -97.58,-97.5784 h -958.28 c -53.88,0 -97.58,43.6994 -97.58,97.5784 0,53.875 43.7,97.578 97.58,97.578"
         style="fill:#d6d3d1;fill-opacity:1;fill-rule:evenodd;stroke:none"
         transform="matrix(0.13333333,0,0,-0.13333333,0,519.4)" />
      <path
         id="path7"
         d="M 3686.4,2197.92 2624.82,1241.7 1563.22,2197.92 Z"
         style="fill:#d6d3d1;fill-opacity:1;fill-rule:evenodd;stroke:none"
         transform="matrix(0.13333333,0,0,-0.13333333,0,519.4)" />
      <path
         id="path8"
         d="m 2527.23,252.41 v 1032.62 c 0,53.88 43.7,97.58 97.58,97.58 53.88,0 97.58,-43.7 97.58,-97.58 V 252.41 c 0,-53.875 -43.7,-97.586 -97.58,-97.586 -53.88,0 -97.58,43.711 -97.58,97.586"
         style="fill:#d6d3d1;fill-opacity:1;fill-rule:evenodd;stroke:none"
         transform="matrix(0.13333333,0,0,-0.13333333,0,519.4)" />
    </g>
  </g>
</svg>
