<?xml version="1.0" encoding="UTF-8" standalone="no"?>
<!-- Created with Inkscape (http://www.inkscape.org/) -->

<svg
   width="32"
   height="32"
   viewBox="0 0 8.4666666 8.4666666"
   version="1.1"
   id="svg5"
   inkscape:version="1.3.2 (091e20ef0f, 2023-11-25)"
   sodipodi:docname="xerophagy.svg"
   xmlns:inkscape="http://www.inkscape.org/namespaces/inkscape"
   xmlns:sodipodi="http://sodipodi.sourceforge.net/DTD/sodipodi-0.dtd"
   xmlns="http://www.w3.org/2000/svg"
   xmlns:svg="http://www.w3.org/2000/svg">
  <sodipodi:namedview
     id="namedview7"
     pagecolor="#ffffff"
     bordercolor="#000000"
     borderopacity="0.25"
     inkscape:showpageshadow="2"
     inkscape:pageopacity="0.0"
     inkscape:pagecheckerboard="0"
     inkscape:deskcolor="#d1d1d1"
     inkscape:document-units="px"
     showgrid="false"
     inkscape:zoom="11.313709"
     inkscape:cx="20.373513"
     inkscape:cy="25.146484"
     inkscape:window-width="1600"
     inkscape:window-height="831"
     inkscape:window-x="0"
     inkscape:window-y="0"
     inkscape:window-maximized="1"
     inkscape:current-layer="layer1" />
  <defs
     id="defs2" />
  <g
     inkscape:label="Layer 1"
     inkscape:groupmode="layer"
     id="layer1">
    <path
       id="path3"
       d="M 8.3728697,2.4460953 C 9.0029822,3.473302 6.3109777,4.6495518 4.6989688,5.4012439 2.7335851,6.3424114 0.40834633,7.4511284 0.06254003,6.3212656 -0.20361055,5.4516942 0.40473635,4.4943465 1.4122366,3.6732538 1.579595,3.8718807 1.7667721,4.1972098 1.9737985,4.6493531 2.0166708,4.2188714 1.9315798,3.8146283 1.7185127,3.4365345 1.9377444,3.1007569 2.6926849,2.6359848 3.1196774,2.5919404 3.3710174,2.8415078 3.657876,3.3183178 3.9803424,4.022551 4.0387307,3.4360055 3.9215182,2.8854383 3.6286455,2.3707509 c -0.00388,-0.00294 -0.00754,-0.00566 -0.011427,-0.0086 C 3.9498463,2.0671412 4.6953149,1.7492836 5.1426461,1.8497437 5.3353424,2.0253166 5.5571657,2.387107 5.8081023,2.9352162 5.8495957,2.5189276 5.7713464,2.1271969 5.5734761,1.7598723 6.8101656,1.541384 7.9094041,1.690441 8.3728417,2.4459814"
       style="fill:#fdba74;fill-opacity:1;fill-rule:evenodd;stroke:none;stroke-width:0.000443665" />
  </g>
</svg>
